HIERARCHY
ROOT hip
{
  OFFSET 0 0 0
  CHANNELS 6 Xposition Yposition Zposition Zrotation Yrotation Xrotation
  JOINT abdomen
  {
    OFFSET 0 20.6881 -0.73152
    CHANNELS 3 Zrotation Xrotation Yrotation
    JOINT chest
    {
      OFFSET 0 11.7043 -0.48768
      CHANNELS 3 Zrotation Xrotation Yrotation
      JOINT neck
      {
        OFFSET 0 22.1894 -2.19456
        CHANNELS 3 Zrotation Xrotation Yrotation
        JOINT head
        {
          OFFSET -0.24384 7.07133 1.2192
          CHANNELS 3 Zrotation Xrotation Yrotation
          JOINT leftEye
          {
            OFFSET 4.14528 8.04674 8.04672
            CHANNELS 3 Zrotation Xrotation Yrotation
            End Site
            {
              OFFSET 1 0 0
            }
          }
          JOINT rightEye
          {
            OFFSET -3.6576 8.04674 8.04672
            CHANNELS 3 Zrotation Xrotation Yrotation
            End Site
            {
              OFFSET 1 0 0
            }
          }
        }
      }
      JOINT rCollar
      {
        OFFSET -2.68224 19.2634 -4.8768
        CHANNELS 3 Zrotation Xrotation Yrotation
        JOINT rShldr
        {
          OFFSET -8.77824 -1.95073 1.46304
          CHANNELS 3 Zrotation Xrotation Yrotation
          JOINT rForeArm
          {
            OFFSET -28.1742 -1.7115 0.48768
            CHANNELS 3 Zrotation Xrotation Yrotation
            JOINT rHand
            {
              OFFSET -22.5879 0.773209 7.07136
              CHANNELS 3 Zrotation Xrotation Yrotation
              JOINT rThumb1
              {
                OFFSET -1.2192 -0.487915 3.41376
                CHANNELS 3 Zrotation Xrotation Yrotation
                JOINT rThumb2
                {
                  OFFSET -3.37035 -0.52449 3.41376
                  CHANNELS 3 Zrotation Xrotation Yrotation
                  End Site
                  {
                    OFFSET -1.78271 -1.18214 1.43049
                  }
                }
              }
              JOINT rIndex1
              {
                OFFSET -7.75947 0.938293 5.60832
                CHANNELS 3 Zrotation Xrotation Yrotation
                JOINT rIndex2
                {
                  OFFSET -2.54057 -0.884171 1.56538
                  CHANNELS 3 Zrotation Xrotation Yrotation
                  End Site
                  {
                    OFFSET -1.62519 -0.234802 1.16502
                  }
                }
              }
              JOINT rMid1
              {
                OFFSET -8.24714 1.18213 3.41376
                CHANNELS 3 Zrotation Xrotation Yrotation
                JOINT rMid2
                {
                  OFFSET -3.10165 -0.590103 1.0647
                  CHANNELS 3 Zrotation Xrotation Yrotation
                  End Site
                  {
                    OFFSET -2.48547 -0.328903 0.83742
                  }
                }
              }
              JOINT rRing1
              {
                OFFSET -8.82822 0.546677 1.51678
                CHANNELS 3 Zrotation Xrotation Yrotation
                JOINT rRing2
                {
                  OFFSET -2.60934 -0.819778 -0.0198488
                  CHANNELS 3 Zrotation Xrotation Yrotation
                  End Site
                  {
                    OFFSET -2.33842 -0.294052 0.168128
                  }
                }
              }
              JOINT rPinky1
              {
                OFFSET -8.27202 -0.0477905 -0.4584
                CHANNELS 3 Zrotation Xrotation Yrotation
                JOINT rPinky2
                {
                  OFFSET -1.82734 -0.647385 -0.700984
                  CHANNELS 3 Zrotation Xrotation Yrotation
                  End Site
                  {
                    OFFSET -1.69225 -0.51767 -0.607171
                  }
                }
              }
            }
          }
        }
      }
      JOINT lCollar
      {
        OFFSET 2.68224 19.2634 -4.8768
        CHANNELS 3 Zrotation Xrotation Yrotation
        JOINT lShldr
        {
          OFFSET 8.77824 -1.95073 1.46304
          CHANNELS 3 Zrotation Xrotation Yrotation
          JOINT lForeArm
          {
            OFFSET 28.1742 -1.7115 0.48768
            CHANNELS 3 Zrotation Xrotation Yrotation
            JOINT lHand
            {
              OFFSET 22.5879 0.773209 7.07136
              CHANNELS 3 Zrotation Xrotation Yrotation
              JOINT lThumb1
              {
                OFFSET 1.2192 -0.487915 3.41376
                CHANNELS 3 Zrotation Xrotation Yrotation
                JOINT lThumb2
                {
                  OFFSET 3.37035 -0.52449 3.41376
                  CHANNELS 3 Zrotation Xrotation Yrotation
                  End Site
                  {
                    OFFSET 1.78271 -1.18214 1.43049
                  }
                }
              }
              JOINT lIndex1
              {
                OFFSET 7.75947 0.938293 5.60832
                CHANNELS 3 Zrotation Xrotation Yrotation
                JOINT lIndex2
                {
                  OFFSET 2.54057 -0.884171 1.56538
                  CHANNELS 3 Zrotation Xrotation Yrotation
                  End Site
                  {
                    OFFSET 1.62519 -0.234802 1.16502
                  }
                }
              }
              JOINT lMid1
              {
                OFFSET 8.24714 1.18213 3.41376
                CHANNELS 3 Zrotation Xrotation Yrotation
                JOINT lMid2
                {
                  OFFSET 3.10165 -0.590103 1.0647
                  CHANNELS 3 Zrotation Xrotation Yrotation
                  End Site
                  {
                    OFFSET 2.48547 -0.328903 0.83742
                  }
                }
              }
              JOINT lRing1
              {
                OFFSET 8.82822 0.546677 1.51678
                CHANNELS 3 Zrotation Xrotation Yrotation
                JOINT lRing2
                {
                  OFFSET 2.60934 -0.819778 -0.0198488
                  CHANNELS 3 Zrotation Xrotation Yrotation
                  End Site
                  {
                    OFFSET 2.33842 -0.294052 0.168128
                  }
                }
              }
              JOINT lPinky1
              {
                OFFSET 8.27202 -0.0477905 -0.4584
                CHANNELS 3 Zrotation Xrotation Yrotation
                JOINT lPinky2
                {
                  OFFSET 1.82734 -0.647385 -0.700984
                  CHANNELS 3 Zrotation Xrotation Yrotation
                  End Site
                  {
                    OFFSET 1.69225 -0.51767 -0.607171
                  }
                }
              }
            }
          }
        }
      }
    }
  }
  JOINT rButtock
  {
    OFFSET -8.77824 4.35084 1.2192
    CHANNELS 3 Zrotation Xrotation Yrotation
    JOINT rThigh
    {
      OFFSET 0 -1.70687 -2.19456
      CHANNELS 3 Zrotation Xrotation Yrotation
      JOINT rShin
      {
        OFFSET 0 -36.8199 0.73152
        CHANNELS 3 Zrotation Xrotation Yrotation
        JOINT rFoot
        {
          OFFSET 0.73152 -45.1104 -5.12064
          CHANNELS 3 Zrotation Xrotation Yrotation
          End Site
          {
            OFFSET -1.1221 -3.69964 12.103
          }
        }
      }
    }
  }
  JOINT lButtock
  {
    OFFSET 8.77824 4.35084 1.2192
    CHANNELS 3 Zrotation Xrotation Yrotation
    JOINT lThigh
    {
      OFFSET 0 -1.70687 -2.19456
      CHANNELS 3 Zrotation Xrotation Yrotation
      JOINT lShin
      {
        OFFSET 0 -36.8199 0.73152
        CHANNELS 3 Zrotation Xrotation Yrotation
        JOINT lFoot
        {
          OFFSET -0.73152 -45.1104 -5.12064
          CHANNELS 3 Zrotation Xrotation Yrotation
          End Site
          {
            OFFSET 1.1221 -3.69964 12.103
          }
        }
      }
    }
  }
}
MOTION
Frames:	9
Frame Time:	0.00833333
33.7448 85.2844 -94.3118 -184.117 -143.55 -160.331 9.32317 -8.3143 8.02638 -5.66782 -7.22837 1.67888 -28.4292 23.7402 -7.43992 53.3328 -22.916 -8.43156 -0.0 0.0 0.0 -0.0 0.0 0.0 8.91455e-14 1.54464e-13 2.05183e-13 71.4199 23.2576 -5.89178 11.179 -4.88926 -20.032 -0.491338 19.5222 2.85616 -2.94223e-09 1.82432e-09 -9.23505e-10 -5.09517e-09 3.16137e-09 -1.54448e-09 -2.94223e-09 1.82433e-09 -9.23515e-10 7.73091 5.47488 0.417314 -2.94223e-09 1.82432e-09 -9.23505e-10 2.90554 0.965183 0.102902 -2.94222e-09 1.82432e-09 -9.2351e-10 10.2786 0.731801 0.0259123 -2.94224e-09 1.82432e-09 -9.235e-10 2.22167 -0.733487 -0.20892 8.91713e-14 1.54464e-13 2.04983e-13 -77.1682 19.6269 11.6305 -15.7923 -8.49585 29.2347 3.50889 -45.7697 8.30076 2.28749e-10 2.12903e-10 2.54896e-09 3.02974e-10 3.17133e-10 4.40588e-09 2.28745e-10 2.12905e-10 2.54897e-09 -7.73091 5.47488 -0.417314 2.28749e-10 2.12903e-10 2.54896e-09 -2.90554 0.965183 -0.102902 2.28738e-10 2.12903e-10 2.54897e-09 -10.2786 0.731801 -0.0259123 2.28749e-10 2.12902e-10 2.54896e-09 -2.22167 -0.733487 0.20892 -2.03217e-16 0.0 -3.88251e-19 5.17061 -26.8922 2.3125 -0.0956643 30.7598 0.727972 -4.07902 -18.2528 -9.3312 2.03217e-16 0.0 3.88251e-19 6.71696 -47.2479 2.69869 0.468309 45.581 -0.888429 0.418061 -10.9203 -0.321544
33.7314 85.2684 -94.2797 -184.195 -144.722 -160.306 9.4483 -8.24285 7.88199 -5.57022 -7.3504 1.63643 -28.2668 23.8478 -7.62965 53.3343 -22.948 -8.83489 -0.0 0.0 0.0 -0.0 0.0 0.0 1.75122e-13 4.46353e-13 4.77406e-13 71.2335 22.5895 -5.73476 11.1391 -4.86293 -19.9558 -0.508701 19.8472 2.90774 -4.1427e-09 4.64045e-09 -2.24909e-09 -7.18564e-09 8.03881e-09 -3.8115e-09 -4.1427e-09 4.64045e-09 -2.2491e-09 7.73091 5.47488 0.417314 -4.1427e-09 4.64045e-09 -2.24909e-09 2.90554 0.965183 0.102902 -4.1427e-09 4.64045e-09 -2.24909e-09 10.2786 0.731801 0.0259123 -4.14271e-09 4.64045e-09 -2.24908e-09 2.22167 -0.733487 -0.20892 1.75158e-13 4.46353e-13 4.77217e-13 -77.4337 19.5212 11.9595 -15.579 -8.3024 28.7872 3.43282 -45.4027 8.19431 2.2463e-09 2.09978e-09 4.67511e-09 3.71009e-09 3.516e-09 8.14605e-09 2.2463e-09 2.09978e-09 4.67513e-09 -7.73091 5.47488 -0.417314 2.2463e-09 2.09978e-09 4.67511e-09 -2.90554 0.965183 -0.102902 2.24629e-09 2.09978e-09 4.67512e-09 -10.2786 0.731801 -0.0259123 2.2463e-09 2.09978e-09 4.67511e-09 -2.22167 -0.733487 0.20892 -2.03217e-16 0.0 -3.88251e-19 5.2754 -26.6766 1.70224 -0.0918196 30.5961 0.733103 -4.21984 -18.1942 -9.71895 2.03217e-16 0.0 3.88251e-19 7.00959 -47.5117 2.95824 0.464994 45.4919 -0.891145 0.668677 -10.8683 0.555188
33.7073 85.2525 -94.2402 -184.292 -145.882 -160.275 9.572 -8.17622 7.734 -5.46716 -7.46931 1.59357 -28.0921 23.9433 -7.82386 53.3311 -22.9736 -9.24307 -0.0 0.0 0.0 -0.0 0.0 0.0 2.52158e-13 7.25155e-13 7.28856e-13 71.0684 21.939 -5.57316 11.1066 -4.84159 -19.8939 -0.52728 20.1864 2.96183 -5.18774e-09 7.31124e-09 -3.43025e-09 -9.00553e-09 1.26642e-08 -5.83168e-09 -5.18774e-09 7.31124e-09 -3.43026e-09 7.73091 5.47488 0.417314 -5.18774e-09 7.31124e-09 -3.43024e-09 2.90554 0.965183 0.102902 -5.18773e-09 7.31124e-09 -3.43025e-09 10.2786 0.731801 0.0259123 -5.18774e-09 7.31124e-09 -3.43023e-09 2.22167 -0.733487 -0.20892 2.522e-13 7.25155e-13 7.28673e-13 -77.7154 19.4026 12.307 -15.3692 -8.1146 28.3504 3.36143 -45.0517 8.09379 4.24746e-09 3.98622e-09 6.60982e-09 7.09545e-09 6.71952e-09 1.15555e-08 4.24745e-09 3.98622e-09 6.60984e-09 -7.73091 5.47488 -0.417314 4.24746e-09 3.98622e-09 6.60983e-09 -2.90554 0.965183 -0.102902 4.24745e-09 3.98622e-09 6.60983e-09 -10.2786 0.731801 -0.0259123 4.24746e-09 3.98622e-09 6.60982e-09 -2.22167 -0.733487 0.20892 -2.03217e-16 0.0 -3.88251e-19 5.39312 -26.4395 1.09851 -0.0876521 30.4105 0.737814 -4.3557 -18.1356 -10.0954 2.03217e-16 0.0 3.88251e-19 7.28667 -47.7643 3.13377 0.461003 45.3752 -0.892836 0.913182 -10.8046 1.41531
33.6746 85.2358 -94.1817 -184.405 -147.03 -160.246 9.68513 -8.11387 7.58523 -5.36245 -7.5765 1.55158 -27.907 24.0427 -8.01681 53.3422 -23.0241 -9.6341 -0.0 0.0 0.0 -0.0 0.0 0.0 2.82582e-13 8.669e-13 8.49357e-13 70.9312 21.2853 -5.4045 11.084 -4.82669 -19.8508 -0.54582 20.5183 3.01499 -5.58619e-09 8.63736e-09 -3.94888e-09 -9.69997e-09 1.49602e-08 -6.71935e-09 -5.58618e-09 8.63736e-09 -3.94888e-09 7.73091 5.47488 0.417314 -5.58619e-09 8.63736e-09 -3.94887e-09 2.90554 0.965183 0.102902 -5.58618e-09 8.63736e-09 -3.94887e-09 10.2786 0.731801 0.0259123 -5.58619e-09 8.63736e-09 -3.94886e-09 2.22167 -0.733487 -0.20892 2.82631e-13 8.66901e-13 8.49158e-13 -78.01 19.2793 12.672 -15.1713 -7.93944 27.9418 3.29446 -44.7158 7.99885 5.35098e-09 4.99735e-09 7.44639e-09 8.97029e-09 8.44184e-09 1.30381e-08 5.35097e-09 4.99735e-09 7.44641e-09 -7.73091 5.47488 -0.417314 5.35098e-09 4.99735e-09 7.44639e-09 -2.90554 0.965183 -0.102902 5.35097e-09 4.99735e-09 7.44639e-09 -10.2786 0.731801 -0.0259123 5.35099e-09 4.99735e-09 7.44638e-09 -2.22167 -0.733487 0.20892 -2.03217e-16 0.0 -3.88251e-19 5.51532 -26.1798 0.506677 -0.0832433 30.2066 0.742119 -4.48777 -18.0782 -10.4636 2.03217e-16 0.0 3.88251e-19 7.55702 -47.9994 3.27657 0.456624 45.2401 -0.893779 1.13851 -10.7445 2.2145
33.6359 85.2206 -94.1078 -184.51 -148.161 -160.23 9.78715 -8.05402 7.43364 -5.25488 -7.66961 1.51022 -27.7077 24.1426 -8.20958 53.3636 -23.0988 -10.0096 -0.0 0.0 0.0 -0.0 0.0 0.0 2.39913e-13 8.23333e-13 7.56515e-13 70.8203 20.6152 -5.22418 11.0687 -4.81653 -19.8216 -0.56522 20.8616 3.07016 -4.81967e-09 7.89324e-09 -3.56457e-09 -8.37099e-09 1.36711e-08 -6.06858e-09 -4.81967e-09 7.89324e-09 -3.56458e-09 7.73091 5.47488 0.417314 -4.81968e-09 7.89324e-09 -3.56457e-09 2.90554 0.965183 0.102902 -4.81967e-09 7.89324e-09 -3.56457e-09 10.2786 0.731801 0.0259123 -4.81968e-09 7.89324e-09 -3.56456e-09 2.22167 -0.733487 -0.20892 2.39969e-13 8.23333e-13 7.56257e-13 -78.3187 19.1426 13.0576 -14.9882 -7.77967 27.5652 3.23175 -44.3956 7.90943 5.16465e-09 4.71987e-09 6.62137e-09 8.67798e-09 7.98241e-09 1.16072e-08 5.16465e-09 4.71987e-09 6.62138e-09 -7.73091 5.47488 -0.417314 5.16465e-09 4.71987e-09 6.62137e-09 -2.90554 0.965183 -0.102902 5.16465e-09 4.71987e-09 6.62137e-09 -10.2786 0.731801 -0.0259123 5.16466e-09 4.71988e-09 6.62136e-09 -2.22167 -0.733487 0.20892 -2.03217e-16 0.0 -3.88251e-19 5.64524 -25.8898 -0.0713868 -0.078489 29.9783 0.745955 -4.61711 -18.0211 -10.8267 2.03217e-16 0.0 3.88251e-19 7.8236 -48.2132 3.38407 0.451761 45.0823 -0.893857 1.34499 -10.689 2.95233
33.5916 85.2065 -94.0185 -184.622 -149.276 -160.22 9.88224 -7.9975 7.27864 -5.14312 -7.75324 1.469 -27.4948 24.2371 -8.40433 53.3877 -23.1841 -10.3789 -0.0 0.0 0.0 -0.0 0.0 0.0 1.4972e-13 6.65638e-13 5.26761e-13 70.7341 19.9424 -5.03491 11.0604 -4.81106 -19.8061 -0.585865 21.2195 3.12795 -3.27928e-09 5.85378e-09 -2.58774e-09 -5.69785e-09 1.01386e-08 -4.40832e-09 -3.27928e-09 5.85378e-09 -2.58774e-09 7.73091 5.47488 0.417314 -3.27928e-09 5.85378e-09 -2.58774e-09 2.90554 0.965183 0.102902 -3.27928e-09 5.85378e-09 -2.58774e-09 10.2786 0.731801 0.0259123 -3.27928e-09 5.85378e-09 -2.58773e-09 2.22167 -0.733487 -0.20892 1.49784e-13 6.65637e-13 5.26416e-13 -78.6417 18.9917 13.4631 -14.816 -7.6319 27.2113 3.17303 -44.0914 7.8253 4.21088e-09 3.68039e-09 4.72556e-09 7.09906e-09 6.23512e-09 8.3011e-09 4.21088e-09 3.68039e-09 4.72557e-09 -7.73091 5.47488 -0.417314 4.21088e-09 3.68039e-09 4.72556e-09 -2.90554 0.965183 -0.102902 4.21087e-09 3.68039e-09 4.72556e-09 -10.2786 0.731801 -0.0259123 4.21089e-09 3.68039e-09 4.72555e-09 -2.22167 -0.733487 0.20892 -2.03217e-16 0.0 -3.88251e-19 5.78672 -25.5729 -0.63822 -0.0733877 29.7259 0.749344 -4.7429 -17.9642 -11.1824 2.03217e-16 0.0 3.88251e-19 8.07942 -48.4101 3.43279 0.446335 44.899 -0.893 1.53846 -10.6316 3.64868
33.5445 85.1918 -93.9159 -184.727 -150.374 -160.215 9.96842 -7.9477 7.12524 -5.03075 -7.82927 1.42886 -27.2762 24.338 -8.59709 53.4275 -23.2918 -10.7322 -0.0 0.0 0.0 -0.0 0.0 0.0 5.24094e-14 4.48999e-13 2.88158e-13 70.6781 19.2859 -4.84518 11.0653 -4.81422 -19.8152 -0.605324 21.5478 3.18125 -1.83804e-09 3.57033e-09 -1.32648e-09 -3.19154e-09 6.18213e-09 -2.25518e-09 -1.83804e-09 3.57032e-09 -1.32648e-09 7.73091 5.47488 0.417314 -1.83804e-09 3.57033e-09 -1.32648e-09 2.90554 0.965183 0.102902 -1.83803e-09 3.57033e-09 -1.32648e-09 10.2786 0.731801 0.0259123 -1.83804e-09 3.57033e-09 -1.32647e-09 2.22167 -0.733487 -0.20892 5.24778e-14 4.48998e-13 2.87737e-13 -78.9758 18.8467 13.8819 -14.6534 -7.4941 26.878 3.11796 -43.8017 7.74598 2.98034e-09 2.41387e-09 2.58359e-09 5.05056e-09 4.10578e-09 4.56093e-09 2.98034e-09 2.41387e-09 2.5836e-09 -7.73091 5.47488 -0.417314 2.98034e-09 2.41387e-09 2.58359e-09 -2.90554 0.965183 -0.102902 2.98033e-09 2.41387e-09 2.58359e-09 -10.2786 0.731801 -0.0259123 2.98034e-09 2.41387e-09 2.58358e-09 -2.22167 -0.733487 0.20892 -2.03217e-16 0.0 -3.88251e-19 5.9317 -25.2447 -1.19532 -0.0681787 29.4633 0.752422 -4.86359 -17.9095 -11.5253 2.03217e-16 0.0 3.88251e-19 8.31982 -48.596 3.4437 0.44065 44.7021 -0.891557 1.71513 -10.5766 4.28984
33.4948 85.1747 -93.8002 -184.837 -151.442 -160.21 10.0436 -7.90801 6.9784 -4.92132 -7.89956 1.39074 -27.06 24.4569 -8.78397 53.4958 -23.4335 -11.0596 -0.0 0.0 0.0 -0.0 0.0 0.0 -1.16117e-14 2.28604e-13 1.68768e-13 70.6574 18.6649 -4.66318 11.0891 -4.82999 -19.8604 -0.620826 21.8021 3.22277 -1.36899e-09 2.09422e-09 -8.8887e-11 -2.36303e-09 3.62088e-09 -1.25773e-10 -1.36898e-09 2.09422e-09 -8.88901e-11 7.73091 5.47488 0.417314 -1.36899e-09 2.09423e-09 -8.8887e-11 2.90554 0.965183 0.102902 -1.36898e-09 2.09422e-09 -8.8887e-11 10.2786 0.731801 0.0259123 -1.36899e-09 2.09423e-09 -8.88838e-11 2.22167 -0.733487 -0.20892 -1.15475e-14 2.28603e-13 1.68321e-13 -79.3186 18.7279 14.3075 -14.4988 -7.36411 26.5633 3.0662 -43.5249 7.67099 1.9637e-09 1.45529e-09 1.0201e-09 3.3495e-09 2.50016e-09 1.82783e-09 1.96371e-09 1.45529e-09 1.02011e-09 -7.73091 5.47488 -0.417314 1.96371e-09 1.45529e-09 1.0201e-09 -2.90554 0.965183 -0.102902 1.96369e-09 1.45529e-09 1.0201e-09 -10.2786 0.731801 -0.0259123 1.96371e-09 1.45529e-09 1.02009e-09 -2.22167 -0.733487 0.20892 -2.03217e-16 0.0 -3.88251e-19 6.07147 -24.9211 -1.74448 -0.0631025 29.2043 0.755323 -4.97768 -17.8588 -11.8502 2.03217e-16 0.0 3.88251e-19 8.54063 -48.7763 3.43819 0.435003 44.5033 -0.889871 1.87142 -10.5283 4.86215
33.444 85.1539 -93.6718 -184.948 -152.484 -160.202 10.1097 -7.87816 6.83323 -4.8128 -7.96625 1.35327 -26.8456 24.5951 -8.96363 53.5972 -23.6143 -11.3565 -0.0 0.0 0.0 -0.0 0.0 0.0 -2.16528e-14 -3.37004e-14 2.49643e-13 70.6704 18.0886 -4.48762 11.1345 -4.8599 -19.9468 -0.631746 21.9785 3.25167 -2.73022e-09 1.93316e-09 1.30236e-09 -4.69044e-09 3.33055e-09 2.30147e-09 -2.73021e-09 1.93315e-09 1.30236e-09 7.73091 5.47488 0.417314 -2.73022e-09 1.93316e-09 1.30236e-09 2.90554 0.965183 0.102902 -2.73021e-09 1.93316e-09 1.30236e-09 10.2786 0.731801 0.0259123 -2.73022e-09 1.93316e-09 1.30236e-09 2.22167 -0.733487 -0.20892 -2.16037e-14 -3.37015e-14 2.49252e-13 -79.6735 18.6304 14.7451 -14.354 -7.24339 26.2698 3.01765 -43.2615 7.60029 1.17456e-09 9.0319e-10 3.00803e-10 2.00864e-09 1.59113e-09 5.62133e-10 1.17456e-09 9.03193e-10 3.00812e-10 -7.73091 5.47488 -0.417314 1.17456e-09 9.03192e-10 3.00805e-10 -2.90554 0.965183 -0.102902 1.17455e-09 9.03192e-10 3.00805e-10 -10.2786 0.731801 -0.0259123 1.17456e-09 9.03191e-10 3.00802e-10 -2.22167 -0.733487 0.20892 -2.03217e-16 0.0 -3.88251e-19 6.2083 -24.6079 -2.28925 -0.0582462 28.9533 0.758162 -5.08418 -17.8152 -12.1521 2.03217e-16 0.0 3.88251e-19 8.75303 -48.9591 3.4234 0.429459 44.3049 -0.88802 2.00073 -10.5022 5.33678
